<?xml version="1.0" encoding="UTF-8" standalone="no"?>
<svg
   xmlns:osb="http://www.openswatchbook.org/uri/2009/osb"
   xmlns:dc="http://purl.org/dc/elements/1.1/"
   xmlns:cc="http://creativecommons.org/ns#"
   xmlns:rdf="http://www.w3.org/1999/02/22-rdf-syntax-ns#"
   xmlns:svg="http://www.w3.org/2000/svg"
   xmlns="http://www.w3.org/2000/svg"
   xmlns:sodipodi="http://sodipodi.sourceforge.net/DTD/sodipodi-0.dtd"
   xmlns:inkscape="http://www.inkscape.org/namespaces/inkscape"
   viewBox="0 0 16 16"
   fill-rule="evenodd"
   clip-rule="evenodd"
   stroke-linejoin="round"
   stroke-miterlimit="1.414"
   id="svg2"
   version="1.1"
   inkscape:version="0.91 r13725"
   sodipodi:docname="git.svg">
  <metadata
     id="metadata10">
    <rdf:RDF>
      <cc:Work
         rdf:about="">
        <dc:format>image/svg+xml</dc:format>
        <dc:type
           rdf:resource="http://purl.org/dc/dcmitype/StillImage" />
      </cc:Work>
    </rdf:RDF>
  </metadata>
  <defs
     id="defs8">
    <linearGradient
       id="linearGradient4138"
       osb:paint="solid">
      <stop
         style="stop-color:#000000;stop-opacity:1;"
         offset="0"
         id="stop4140" />
    </linearGradient>
  </defs>
  <sodipodi:namedview
     pagecolor="#ffffff"
     bordercolor="#666666"
     borderopacity="1"
     objecttolerance="10"
     gridtolerance="10"
     guidetolerance="10"
     inkscape:pageopacity="0"
     inkscape:pageshadow="2"
     inkscape:window-width="701"
     inkscape:window-height="480"
     id="namedview6"
     showgrid="false"
     inkscape:zoom="14.75"
     inkscape:cx="8"
     inkscape:cy="7.9322034"
     inkscape:window-x="0"
     inkscape:window-y="0"
     inkscape:window-maximized="0"
     inkscape:current-layer="svg2" />
  <path
     d="M15.698 7.287L8.708.302C8.305-.1 7.652-.1 7.248.302L5.8 1.752l1.84 1.84c.43-.144.92-.047 1.26.294.344.343.44.838.292 1.267l1.774 1.773c.43-.148.925-.052 1.268.29.48.48.48 1.256 0 1.735-.48.48-1.256.48-1.735 0-.36-.36-.45-.89-.267-1.332L8.574 5.964v4.352c.117.058.227.135.325.232.478.48.478 1.255 0 1.734-.48.48-1.257.48-1.736 0-.48-.48-.48-1.255 0-1.734.118-.118.256-.208.402-.268V5.887c-.146-.06-.283-.148-.402-.267-.363-.363-.45-.895-.264-1.34L5.085 2.465.29 7.255c-.4.403-.4 1.055 0 1.458l6.992 6.985c.402.403 1.055.403 1.458 0l6.958-6.953c.403-.402.403-1.055 0-1.458"
     fill-rule="nonzero"
     id="path4"
     style="fill-opacity:1;fill:#ffffff" />
</svg>
