<?xml version="1.0" encoding="UTF-8" standalone="no"?>
<svg
   xmlns:osb="http://www.openswatchbook.org/uri/2009/osb"
   xmlns:dc="http://purl.org/dc/elements/1.1/"
   xmlns:cc="http://creativecommons.org/ns#"
   xmlns:rdf="http://www.w3.org/1999/02/22-rdf-syntax-ns#"
   xmlns:svg="http://www.w3.org/2000/svg"
   xmlns="http://www.w3.org/2000/svg"
   xmlns:sodipodi="http://sodipodi.sourceforge.net/DTD/sodipodi-0.dtd"
   xmlns:inkscape="http://www.inkscape.org/namespaces/inkscape"
   viewBox="0 0 16 16"
   fill-rule="evenodd"
   clip-rule="evenodd"
   stroke-linejoin="round"
   stroke-miterlimit="1.414"
   id="svg2"
   version="1.1"
   inkscape:version="0.91 r13725"
   sodipodi:docname="sass.svg">
  <metadata
     id="metadata10">
    <rdf:RDF>
      <cc:Work
         rdf:about="">
        <dc:format>image/svg+xml</dc:format>
        <dc:type
           rdf:resource="http://purl.org/dc/dcmitype/StillImage" />
      </cc:Work>
    </rdf:RDF>
  </metadata>
  <defs
     id="defs8">
    <linearGradient
       id="linearGradient4138"
       osb:paint="solid">
      <stop
         style="stop-color:#000000;stop-opacity:1;"
         offset="0"
         id="stop4140" />
    </linearGradient>
  </defs>
  <sodipodi:namedview
     pagecolor="#ffffff"
     bordercolor="#666666"
     borderopacity="1"
     objecttolerance="10"
     gridtolerance="10"
     guidetolerance="10"
     inkscape:pageopacity="0"
     inkscape:pageshadow="2"
     inkscape:window-width="701"
     inkscape:window-height="480"
     id="namedview6"
     showgrid="false"
     inkscape:zoom="14.75"
     inkscape:cx="8"
     inkscape:cy="7.9322034"
     inkscape:window-x="0"
     inkscape:window-y="0"
     inkscape:window-maximized="0"
     inkscape:current-layer="svg2" />
  <path
     d="M8 0c4.418 0 8 3.582 8 8s-3.582 8-8 8-8-3.582-8-8 3.582-8 8-8zM6.41 10.665c.117.43.104.832-.016 1.195l-.044.12c-.016.04-.034.08-.052.117-.093.193-.217.373-.37.54-.465.506-1.114.698-1.393.536-.3-.174-.15-.89.39-1.46.58-.612 1.413-1.006 1.413-1.006v-.002l.072-.04zm6.608-7.24c-.362-1.422-2.718-1.89-4.948-1.097C6.743 2.8 5.307 3.54 4.274 4.506 3.046 5.654 2.85 6.654 2.93 7.072c.285 1.474 2.305 2.438 3.136 3.153v.004c-.245.12-2.037 1.026-2.457 1.953-.443.98.07 1.68.41 1.775 1.052.293 2.13-.234 2.71-1.1.56-.835.515-1.913.27-2.45.337-.088.728-.128 1.226-.07 1.403.164 1.68 1.04 1.626 1.407-.053.367-.347.568-.446.63-.098.06-.128.08-.12.126.012.067.058.065.142.05.115-.02.737-.298.763-.975.035-.86-.79-1.82-2.247-1.795-.6.01-.978.067-1.25.17-.02-.024-.042-.047-.063-.07-.9-.962-2.568-1.642-2.497-2.935.025-.47.19-1.708 3.202-3.21 2.47-1.23 4.445-.89 4.786-.14.49 1.07-1.055 3.062-3.618 3.35-.977.11-1.49-.27-1.62-.41-.134-.15-.154-.155-.204-.127-.082.045-.03.176 0 .254.076.2.39.552.926.728.47.155 1.618.24 3.004-.297 1.554-.6 2.766-2.272 2.41-3.67z"
     id="path4"
     style="fill-opacity:1;fill:#ffffff" />
</svg>
